<svg width="258" height="258" viewBox="0 0 258 258" fill="none" xmlns="http://www.w3.org/2000/svg">
<path fill-rule="evenodd" clip-rule="evenodd" d="M149.889 149.413C147.848 147.854 145.452 146.536 142.7 145.46C137.918 143.589 132.409 142.653 126.172 142.653H104.55V102.735H126.172C131.924 102.735 136.983 101.8 141.349 99.9287C145.784 98.0576 149.215 95.4588 151.64 92.1323C154.135 88.8059 155.348 84.9943 155.278 80.6976C155.348 76.5395 154.343 72.8666 152.264 69.6787C150.185 66.4908 147.274 63.996 143.532 62.1942C139.859 60.3923 135.597 59.4914 130.746 59.4914C125.479 59.4914 120.766 60.427 116.608 62.2981C112.519 64.1693 109.297 66.7681 106.941 70.0945C104.584 73.421 103.372 77.2325 103.302 81.5292H48C48.0693 68.5006 51.6383 56.9966 58.707 47.0172C65.8451 37.0378 75.6166 29.2068 88.0215 23.5241C100.426 17.8414 114.668 15 130.746 15C146.477 15 160.372 17.6681 172.43 23.0043C184.558 28.3405 194.018 35.6864 200.809 45.0421C207.67 54.3285 211.066 64.9662 210.997 76.9553C211.135 88.8752 207.046 98.6466 198.73 106.27C190.483 113.893 180.019 118.397 167.337 119.784V121.447C184.523 123.318 197.448 128.585 206.111 137.247C209.91 141.016 212.863 145.211 214.969 149.833H157.965C157.109 151.157 156.364 152.541 155.73 153.986C153.998 157.867 153.132 162.579 153.132 168.124V173.113H104.066V168.124C104.066 160.981 104.418 154.744 105.121 149.413H149.889ZM129.431 242.969C121.392 242.969 114.496 240.162 108.744 234.549C103.061 228.866 100.255 221.971 100.324 213.862C100.255 205.962 103.061 199.205 108.744 193.592C114.496 187.978 121.392 185.172 129.431 185.172C137.054 185.172 143.776 187.978 149.597 193.592C155.488 199.205 158.468 205.962 158.537 213.862C158.468 219.268 157.047 224.188 154.275 228.624C151.572 232.99 148.038 236.489 143.672 239.123C139.306 241.687 134.559 242.969 129.431 242.969Z" fill="#4DD3E6"/>
</svg>
